<svg width="857" height="857" viewBox="0 0 857 857" fill="none" xmlns="http://www.w3.org/2000/svg">
<path d="M412.119 0.304967C648.787 -8.54815 847.682 176.441 855.972 413.134C864.263 649.828 678.802 848.276 442.085 856.003C206.169 863.706 8.53 679.004 0.267393 443.108C-7.99505 207.207 176.238 9.12831 412.119 0.304967ZM437.248 81.9681C430.28 81.7733 417.672 81.6116 410.741 82.2649C318.335 86.7207 231.63 128.241 170.227 197.437C108.508 266.01 76.7487 356.402 82.0096 448.508C87.2675 540.048 128.571 625.783 196.883 686.946C265.428 748.813 356.049 780.389 448.202 774.511C472.872 773.097 522.738 764.898 544.248 753.203C548.669 750.766 552.655 747.601 556.022 743.841C562.574 736.579 565.96 726.996 565.422 717.23C564.221 697.281 544.609 685.317 526.093 687.968C513.945 689.707 503.75 693.148 492.037 696.344C483.214 698.744 474.249 700.582 465.193 701.843C391.774 712.362 317.265 692.131 259.244 645.927C202.556 601.933 165.576 537.298 156.379 466.136C147.584 392.481 165.976 320.54 212.115 262.007C257.155 204.537 323.236 167.377 395.741 158.745C420.623 155.827 444.204 152.84 462.395 173.031C469.786 183.228 473.306 193.926 471.273 206.627C469.473 218.053 463.123 228.265 453.676 234.93C440.07 244.499 427.157 242.198 411.2 243.001C403.917 243.407 396.668 244.296 389.503 245.662C314.014 260.144 254.953 319.138 240.388 394.612C231.095 444.681 242.115 496.39 271.013 538.315C299.24 579.198 342.525 607.217 391.38 616.237C440.315 625.262 490.813 614.112 531.402 585.327C572.126 556.47 599.723 512.61 608.111 463.406C609.464 455.25 610.303 447.02 610.622 438.766C611.357 420.067 610.628 403.861 628.556 391.13C637.551 384.765 648.713 382.257 659.569 384.161C670.529 386.057 680.118 392.612 686.388 401.685C697.257 417.399 693.656 438.344 692.695 456.309C692.205 465.346 690.564 476.019 688.819 484.898C680.926 525.408 663.77 563.542 638.696 596.324C630.626 606.795 617.571 619.188 613.144 630.767C608.454 642.768 609.911 656.3 617.051 667.028C625.99 680.272 643.503 686.407 658.681 681.448L659.734 681.116C684.379 673.083 725.013 607.67 736.916 583.723C777.775 501.968 784.621 407.37 755.959 320.584C726.642 232.36 663.543 159.354 580.496 117.568C535.835 95.6063 486.991 83.467 437.248 81.9681ZM589.025 205.832C622.279 201.818 652.541 225.403 656.765 258.63C660.984 291.857 637.593 322.262 604.394 326.696C570.895 331.17 540.158 307.52 535.896 273.995C531.635 240.47 555.477 209.882 589.025 205.832Z" fill="white"/>
</svg>
